<?xml version="1.0" encoding="UTF-8"?>
<svg version="1.1" xmlns="http://www.w3.org/2000/svg" width="1052" height="1052">
<path d="M0 0 C30.66464764 -0.69375325 56.86557169 9.21888767 79.09375 30.4296875 C100.51399823 52.59715369 108.13914725 80.62615756 107.65625 110.703125 C106.76605957 135.56169279 96.94687078 158.68515152 80.34375 177.1171875 C79.64636719 177.89707031 78.94898438 178.67695312 78.23046875 179.48046875 C61.07148151 197.64327242 35.77863866 208.35296817 10.96875 209.37109375 C-18.99820625 210.17232322 -43.92342407 202.20499909 -66.65625 182.1171875 C-67.35234375 181.51648438 -68.0484375 180.91578125 -68.765625 180.296875 C-88.10160735 162.43042731 -97.63878912 134.80011192 -98.875 109.10546875 C-99.7892427 79.9665606 -90.52055925 53.08632682 -71.08984375 31.23046875 C-54.38398995 13.79510168 -30.85046447 1.45280215 -6.4375 0.171875 C-4.29131684 0.12967477 -2.14549628 0.06876591 0 0 Z M-35.328125 66.234375 C-45.10591862 78.34177717 -49.1500548 94.70195184 -47.65625 110.1171875 C-45.55048076 127.22656259 -39.49392925 140.27683834 -25.84375 151.4296875 C-14.00464703 159.7978888 -0.71609334 161.23309635 13.34375 160.1171875 C27.76284546 157.46661848 39.70924651 149.50736385 48.09375 137.4921875 C56.66039916 122.38157023 58.61731891 103.87296265 54.34375 87.1171875 C50.15229961 73.37679373 42.63557343 62.79453951 30.34375 55.1171875 C7.5282816 44.06501904 -17.60963634 47.56867154 -35.328125 66.234375 Z " fill="#FEFEFE" transform="translate(626.65625,496.8828125)"/>
<path d="M0 0 C0.79029602 -0.01243744 1.58059204 -0.02487488 2.39483643 -0.03768921 C49.53426128 -0.6353611 49.53426128 -0.6353611 61.76171875 9.2734375 C64.0011238 13.7522476 62.94756292 19.89203193 62.94702148 24.87646484 C62.94920351 27.13268009 62.96735042 29.38840284 62.98632812 31.64453125 C62.98926306 33.0807275 62.99124719 34.51692606 62.9921875 35.953125 C62.99629639 37.26007324 63.00040527 38.56702148 63.00463867 39.91357422 C62.77955766 43.02670474 62.51729613 44.73635997 60.76171875 47.2734375 C55.63375192 49.83742092 48.75910856 48.14823141 43.32421875 47.2734375 C25.37388906 44.77631502 3.81545864 43.39229232 -12.36328125 52.9609375 C-21.12984479 59.67362044 -25.07917867 69.93695416 -26.56602478 80.63063049 C-26.85036309 83.15823155 -27.10618772 85.68670427 -27.34765625 88.21875 C-27.43515137 89.09281494 -27.52264648 89.96687988 -27.61279297 90.86743164 C-27.82584376 93.0023173 -28.03270231 95.13781939 -28.23828125 97.2734375 C-27.20733337 97.26677567 -26.1763855 97.26011383 -25.11419678 97.25325012 C-15.40282114 97.19245915 -5.69148407 97.14747454 4.0200386 97.11800098 C9.0129514 97.10233898 14.0057107 97.08109087 18.99853516 97.04711914 C23.81607321 97.01454487 28.63346354 96.99658851 33.45110321 96.98880577 C35.28993811 96.98325879 37.12876484 96.972427 38.96753693 96.95624733 C41.5413618 96.93449866 44.11457472 96.93146949 46.68847656 96.93286133 C47.45020676 96.9220755 48.21193695 96.91128967 48.99674988 96.900177 C52.15814522 96.91869961 54.40345138 97.07776313 57.20379639 98.60722351 C61.36201921 103.05448559 59.94769158 110.31850515 59.94702148 116.04248047 C59.94920368 118.13399738 59.96735997 120.22498291 59.98632812 122.31640625 C59.98926326 123.65364404 59.99124725 124.99088432 59.9921875 126.328125 C59.99629639 127.53968262 60.00040527 128.75124023 60.00463867 129.99951172 C59.76366043 133.24726867 59.29340023 135.41281116 57.76171875 138.2734375 C54.01980067 140.76804955 51.13079112 140.54115906 46.80200195 140.50048828 C45.99201752 140.50078033 45.18203308 140.50107239 44.34750366 140.50137329 C41.6690603 140.49997946 38.99089479 140.48441582 36.3125 140.46875 C34.45590873 140.46502006 32.5993155 140.462173 30.74272156 140.46017456 C25.85511851 140.45253663 20.96763423 140.43288675 16.08007812 140.4107666 C11.0931153 140.39031163 6.1061333 140.38117359 1.11914062 140.37109375 C-8.66671887 140.34964103 -18.45249018 140.31550313 -28.23828125 140.2734375 C-28.23459408 141.05403943 -28.23090691 141.83464136 -28.227108 142.6388979 C-28.1388398 161.6168978 -28.07261206 180.59485683 -28.03103256 199.57301807 C-28.01039149 208.75065791 -27.9822415 217.92816089 -27.93652344 227.10571289 C-27.89670283 235.10319711 -27.87085968 243.10058223 -27.86192727 251.09816283 C-27.85670438 255.334389 -27.84439698 259.57033161 -27.81536102 263.80646706 C-27.78826715 267.79144897 -27.77982389 271.77602978 -27.78585052 275.76109505 C-27.78474757 277.22567167 -27.77675753 278.69026132 -27.76145935 280.15475845 C-27.74162992 282.15046299 -27.74871019 284.14638141 -27.75726318 286.14216614 C-27.75357601 287.26030103 -27.74988884 288.37843592 -27.74608994 289.53045368 C-28.23828125 292.2734375 -28.23828125 292.2734375 -30.1355629 294.13241196 C-32.51687648 295.42461527 -33.97191445 295.65834131 -36.66796875 295.67749023 C-37.96951904 295.69651649 -37.96951904 295.69651649 -39.29736328 295.71592712 C-40.22661621 295.71299149 -41.15586914 295.71005585 -42.11328125 295.70703125 C-43.07476074 295.7122731 -44.03624023 295.71751495 -45.02685547 295.72291565 C-47.05760737 295.72933282 -49.08839646 295.7280028 -51.11914062 295.71948242 C-54.22723461 295.71096776 -57.3334936 295.73974587 -60.44140625 295.77148438 C-62.41536403 295.77309637 -64.38932507 295.7725189 -66.36328125 295.76953125 C-67.29253418 295.78076523 -68.22178711 295.79199921 -69.17919922 295.80357361 C-70.04689941 295.79419266 -70.91459961 295.78481171 -71.80859375 295.77514648 C-72.56930176 295.77498032 -73.33000977 295.77481415 -74.11376953 295.77464294 C-77.17026111 295.05356892 -78.28187304 293.70391362 -80.23828125 291.2734375 C-80.73047256 288.42302322 -80.73047256 288.42302322 -80.71929932 285.05987549 C-80.72479797 283.78383957 -80.73029663 282.50780365 -80.73596191 281.19309998 C-80.72180619 279.78139882 -80.70726696 278.36970147 -80.69238281 276.95800781 C-80.69125438 275.4697523 -80.69188811 273.98149457 -80.69415283 272.49324036 C-80.69530109 268.45415486 -80.671774 264.41554394 -80.643857 260.37656879 C-80.61886187 256.15518407 -80.61650284 251.93378862 -80.61175537 247.71234131 C-80.59932002 239.7189857 -80.56649091 231.72584877 -80.52635741 223.73258948 C-80.48165705 214.632338 -80.45965704 205.53207611 -80.43957567 196.43174219 C-80.39775872 177.71218329 -80.32739585 158.99282797 -80.23828125 140.2734375 C-80.79316223 140.28009933 -81.34804321 140.28676117 -81.91973877 140.29362488 C-87.69464321 140.35999248 -93.46943932 140.40524391 -99.24462891 140.43823242 C-101.39994711 140.45331932 -103.55523461 140.47379139 -105.71044922 140.49975586 C-108.80834529 140.53614294 -111.90583548 140.55316489 -115.00390625 140.56640625 C-115.96758118 140.58189011 -116.9312561 140.59737396 -117.9241333 140.61332703 C-119.27508087 140.61366692 -119.27508087 140.61366692 -120.65332031 140.61401367 C-121.83912689 140.62400642 -121.83912689 140.62400642 -123.04888916 140.63420105 C-125.80588259 140.17990931 -127.18276032 139.12970239 -129.23828125 137.2734375 C-131.35125984 132.21838111 -130.46332023 125.80496008 -130.47851562 120.42895508 C-130.48823378 118.34611251 -130.5192899 116.26425249 -130.55078125 114.18164062 C-130.5559375 112.86228516 -130.56109375 111.54292969 -130.56640625 110.18359375 C-130.57575195 108.97840088 -130.58509766 107.77320801 -130.59472656 106.53149414 C-130.20593416 102.9777718 -129.37412116 101.10963271 -127.23828125 98.2734375 C-124.88628065 97.0974372 -123.50093724 97.15259209 -120.88037109 97.15991211 C-119.52919693 97.16002541 -119.52919693 97.16002541 -118.15072632 97.16014099 C-117.17672882 97.16530228 -116.20273132 97.17046356 -115.19921875 97.17578125 C-114.20322662 97.1771962 -113.2072345 97.17861115 -112.18106079 97.18006897 C-108.99177072 97.18567814 -105.80255019 97.1982322 -102.61328125 97.2109375 C-100.4544281 97.21595132 -98.29557384 97.22051443 -96.13671875 97.22460938 C-90.83721575 97.23565055 -85.53775347 97.25239762 -80.23828125 97.2734375 C-80.24921814 96.5461293 -80.26015503 95.81882111 -80.27142334 95.06947327 C-80.62167417 70.67369753 -80.62167417 70.67369753 -78.23828125 60.2734375 C-77.97015625 59.0565625 -77.70203125 57.8396875 -77.42578125 56.5859375 C-73.14353613 38.88599101 -64.56798279 24.36341573 -49.00585938 14.34082031 C-34.11744035 5.35018938 -17.43063475 0.25214185 0 0 Z " fill="#FEFEFE" transform="translate(174.23828125,405.7265625)"/>
<path d="M0 0 C16.31208409 14.31998886 23.445588 33.87459218 26 55 C26.26300707 59.42067381 26.29400729 63.82644699 26.29052734 68.25415039 C26.29724457 69.50783417 26.30396179 70.76151794 26.31088257 72.05319214 C26.32647738 75.44728613 26.33322805 78.84113534 26.33451414 82.23524785 C26.33594574 84.35988529 26.34023363 86.48449777 26.34550858 88.60912895 C26.36392052 96.03134649 26.37218818 103.45349279 26.37060547 110.87573242 C26.36939847 117.78281816 26.39063203 124.68959429 26.4220928 131.59660155 C26.44822565 137.54678563 26.45897441 143.49686811 26.45769465 149.44710916 C26.4571852 152.99290246 26.46286197 156.53841833 26.48405075 160.08415413 C26.50697681 164.02636099 26.49793081 167.96813763 26.48583984 171.91040039 C26.49707886 173.08184097 26.50831787 174.25328156 26.51989746 175.46022034 C26.51150848 176.53235779 26.50311951 177.60449524 26.49447632 178.7091217 C26.49556585 179.63984025 26.49665539 180.5705588 26.49777794 181.52948093 C25.8474862 184.75694044 24.52433203 185.95703792 22 188 C19.87548828 188.50793457 19.87548828 188.50793457 17.5703125 188.51757812 C16.7026123 188.53018677 15.83491211 188.54279541 14.94091797 188.55578613 C14.01166504 188.54768921 13.08241211 188.53959229 12.125 188.53125 C11.16352051 188.5350769 10.20204102 188.53890381 9.21142578 188.54284668 C7.1806534 188.54556602 5.14984601 188.53820329 3.11914062 188.52148438 C0.0109243 188.50007525 -3.09498056 188.52128546 -6.203125 188.546875 C-8.17708843 188.54423173 -10.15105043 188.53910676 -12.125 188.53125 C-13.05425293 188.53934692 -13.98350586 188.54744385 -14.94091797 188.55578613 C-16.24246826 188.53687317 -16.24246826 188.53687317 -17.5703125 188.51757812 C-18.33102051 188.51439575 -19.09172852 188.51121338 -19.87548828 188.50793457 C-23.13408633 187.72885927 -24.11979795 186.80750513 -26 184 C-26.59824975 180.51885573 -26.5428314 177.07163602 -26.51416016 173.546875 C-26.52128525 172.48292007 -26.52841034 171.41896515 -26.53575134 170.32276917 C-26.55507887 166.79832548 -26.54674026 163.27447938 -26.5390625 159.75 C-26.54896901 157.29580814 -26.56091008 154.84162373 -26.57479858 152.38745117 C-26.60722492 145.91474261 -26.61755653 139.44220317 -26.62164307 132.96942139 C-26.63038046 122.63785477 -26.66611029 112.30642787 -26.7138176 101.97497559 C-26.72633868 98.37681813 -26.7256493 94.77883875 -26.72354126 91.18066406 C-26.73012893 88.94986844 -26.73713663 86.71907401 -26.74462891 84.48828125 C-26.74050491 83.49977676 -26.73638092 82.51127228 -26.73213196 81.49281311 C-26.81472731 66.99736701 -29.12674496 54.04107288 -39.35546875 43.26953125 C-48.0874081 35.77579895 -57.04744736 33.81188577 -68.125 33.75 C-69.02476562 33.729375 -69.92453125 33.70875 -70.8515625 33.6875 C-82.11045974 33.62279369 -91.52107003 36.85295285 -99.75390625 44.6640625 C-112.13935537 58.26011943 -111.42660974 75.89651864 -111.38012505 93.17936897 C-111.37094609 96.9076303 -111.38131286 100.63539621 -111.39674377 104.3636322 C-111.4316099 113.60927084 -111.43915999 122.85489209 -111.43664551 132.10058594 C-111.43478516 139.94388176 -111.44857332 147.78689294 -111.48512459 155.63012505 C-111.49596534 159.30413601 -111.48381698 162.97763209 -111.47129822 166.65162659 C-111.48019704 168.89413978 -111.49026946 171.13664872 -111.50170898 173.37915039 C-111.49196548 174.40097916 -111.48222198 175.42280792 -111.47218323 176.4756012 C-111.54203248 183.31304275 -111.54203248 183.31304275 -113.75428772 186.63145447 C-116.23096098 188.14074849 -117.55036364 188.50553266 -120.4296875 188.51757812 C-121.2973877 188.53018677 -122.16508789 188.54279541 -123.05908203 188.55578613 C-123.98833496 188.54768921 -124.91758789 188.53959229 -125.875 188.53125 C-126.83647949 188.5350769 -127.79795898 188.53890381 -128.78857422 188.54284668 C-130.8193466 188.54556602 -132.85015399 188.53820329 -134.88085938 188.52148438 C-137.9890757 188.50007525 -141.09498056 188.52128546 -144.203125 188.546875 C-146.17708843 188.54423173 -148.15105043 188.53910676 -150.125 188.53125 C-151.05425293 188.53934692 -151.98350586 188.54744385 -152.94091797 188.55578613 C-154.24246826 188.53687317 -154.24246826 188.53687317 -155.5703125 188.51757812 C-156.71137451 188.51280457 -156.71137451 188.51280457 -157.87548828 188.50793457 C-160.98480389 187.76455016 -162.04670849 186.52390761 -164 184 C-164.38873674 181.28048203 -164.53259043 178.96724345 -164.49447632 176.25010681 C-164.49930515 175.46476376 -164.50413398 174.6794207 -164.50910914 173.87027937 C-164.52039018 171.23601753 -164.50305389 168.60272427 -164.48583984 165.96850586 C-164.48798545 164.08117917 -164.49186275 162.19385376 -164.49734497 160.30653381 C-164.5070481 155.17850376 -164.49172336 150.05082123 -164.47143888 144.9228332 C-164.45388924 139.56172367 -164.45739254 134.2006252 -164.4581604 128.8394928 C-164.45628669 119.83686497 -164.43891241 110.83437188 -164.41162109 101.83178711 C-164.38016003 91.41506209 -164.36962519 80.99848462 -164.3710922 70.58171552 C-164.37231183 60.57039712 -164.36211011 50.55912689 -164.34550858 40.54782295 C-164.3384374 36.28272692 -164.3347813 32.01764793 -164.33372116 27.75254631 C-164.33171577 22.7333846 -164.31953468 17.71434734 -164.29938889 12.69522667 C-164.29353503 10.85011303 -164.29108893 9.00498508 -164.29224396 7.15986252 C-164.29322177 4.64741148 -164.28194994 2.13531176 -164.26742554 -0.37709045 C-164.27052274 -1.11268552 -164.27361995 -1.84828059 -164.276811 -2.60616642 C-164.24144448 -6.29324328 -164.10292479 -7.84561282 -162 -11 C-159.31124746 -11.89625085 -157.7209223 -12.13456016 -154.95922852 -12.16113281 C-153.74765831 -12.17554413 -153.74765831 -12.17554413 -152.51161194 -12.19024658 C-151.64281906 -12.19449646 -150.77402618 -12.19874634 -149.87890625 -12.203125 C-148.98259995 -12.20882507 -148.08629364 -12.21452515 -147.16282654 -12.22039795 C-145.2673358 -12.22984164 -143.3718287 -12.23637943 -141.47631836 -12.24023438 C-138.57702066 -12.24995133 -135.67842855 -12.28098502 -132.77929688 -12.3125 C-130.93750421 -12.31902916 -129.09570648 -12.32427997 -127.25390625 -12.328125 C-125.95375328 -12.3466452 -125.95375328 -12.3466452 -124.62733459 -12.36553955 C-118.64813906 -12.34340992 -118.64813906 -12.34340992 -115.48413086 -10.66699219 C-109.06746266 -3.45971954 -111.89214985 13.66497057 -112 23 C-110.35 23 -108.7 23 -107 23 C-106.73445312 22.28457031 -106.46890625 21.56914063 -106.1953125 20.83203125 C-99.84229731 5.77995278 -87.79519469 -4.61663107 -73.1875 -11.3125 C-48.97300635 -21.12918661 -19.89703727 -16.91728773 0 0 Z " fill="#FEFEFE" transform="translate(946,513)"/>
<path d="M0 0 C0.97301056 -0.00571014 1.94602112 -0.01142029 2.94851685 -0.01730347 C4.01972778 -0.01842133 5.09093872 -0.01953918 6.1946106 -0.02069092 C7.8825322 -0.02813828 7.8825322 -0.02813828 9.60455322 -0.03573608 C13.34047041 -0.05038437 17.07634515 -0.05716392 20.81228638 -0.06268311 C23.40059409 -0.06843205 25.98890179 -0.07418981 28.57720947 -0.07995605 C33.31459874 -0.08912792 38.05197094 -0.09542535 42.78936756 -0.09845281 C49.76347528 -0.10293403 56.73738706 -0.12048432 63.7114352 -0.1494534 C69.75025468 -0.17366767 75.78898139 -0.18139677 81.82785416 -0.18312836 C84.397941 -0.18616147 86.96802688 -0.19421201 89.53808212 -0.20731354 C93.12947295 -0.22431556 96.72038367 -0.22250792 100.3117981 -0.21600342 C101.37896057 -0.2252182 102.44612305 -0.23443298 103.54562378 -0.243927 C105.01359909 -0.23557327 105.01359909 -0.23557327 106.51123047 -0.22705078 C107.36036955 -0.22851734 108.20950863 -0.2299839 109.0843792 -0.2314949 C112.1202069 0.25981411 113.34580738 0.80153691 115.38259888 3.14044189 C115.78232992 5.96820556 115.92103761 8.4107117 115.88812256 11.24101257 C115.89725774 12.49397498 115.89725774 12.49397498 115.90657747 13.77224976 C115.92224093 16.58202796 115.9093635 19.39096141 115.89675903 22.20074463 C115.90221719 24.21125323 115.90945705 26.22175768 115.91835022 28.23225403 C115.93371889 32.56864417 115.93647603 36.9047976 115.9295845 41.24120903 C115.91881511 48.10444789 115.93616255 54.96743889 115.95739746 61.8306427 C115.98769952 72.69604368 115.99935532 83.56137156 116.00297391 94.42681128 C116.00960733 113.85544616 116.03873355 133.2840295 116.08807027 152.7126022 C116.10452529 159.52756013 116.10999297 166.34241175 116.10647988 173.15738761 C116.10604092 177.41138638 116.11363651 181.66534553 116.12315559 185.9193325 C116.12582471 187.88322539 116.12511009 189.84712645 116.12064552 191.81101608 C115.54468962 212.31558793 115.54468962 212.31558793 124.38259888 230.14044189 C131.95048434 237.51427902 140.97910287 238.26869447 150.95291138 238.38653564 C152.83703102 238.41945023 154.72114549 238.45266225 156.60525513 238.48614502 C159.56567098 238.53368706 162.52606237 238.57818551 165.48660278 238.61724854 C168.3505823 238.65687443 171.21415494 238.70841217 174.07791138 238.76153564 C174.96544098 238.7699498 175.85297058 238.77836395 176.76739502 238.78703308 C178.00415482 238.81199608 178.00415482 238.81199608 179.26589966 238.83746338 C180.3524736 238.85292458 180.3524736 238.85292458 181.46099854 238.86869812 C183.38259888 239.14044189 183.38259888 239.14044189 186.38259888 241.14044189 C187.54892314 244.63941468 187.58190996 247.8327351 187.62088013 251.47637939 C187.62895187 252.19274567 187.63702362 252.90911194 187.64533997 253.64718628 C187.65915601 255.16184079 187.66988924 256.6765261 187.67776489 258.19122314 C187.68929487 259.73721461 187.70976309 261.28316595 187.73928833 262.82891846 C187.78201241 265.0658465 187.79813836 267.30159377 187.80838013 269.53887939 C187.82588821 270.22549652 187.8433963 270.91211365 187.86143494 271.61953735 C187.84646762 274.94815473 187.48975066 276.96509763 185.7434082 279.8228302 C182.72706742 282.78397857 181.31502545 282.76793524 177.13967896 282.77154541 C175.87348221 282.78407852 174.60728546 282.79661163 173.30271912 282.80952454 C171.91917918 282.79723896 170.53564896 282.78381638 169.15213013 282.76934814 C167.71883464 282.77017812 166.28553925 282.77264236 164.85224915 282.7766571 C161.84002178 282.7795177 158.82853663 282.76481442 155.81643677 282.73736572 C152.00583832 282.70367565 148.19658827 282.70953218 144.38592815 282.72750759 C120.87752134 282.8180119 99.63634853 282.50686336 81.59744263 265.35137939 C80.86654419 264.62177002 80.13564575 263.89216064 79.38259888 263.14044189 C78.80638794 262.57583252 78.230177 262.01122314 77.63650513 261.42950439 C66.7087059 249.79210782 63.19675288 232.87630448 63.26234436 217.38923645 C63.26148994 216.64004895 63.26063551 215.89086144 63.25975519 215.11897129 C63.25811694 212.62553364 63.26359449 210.13216429 63.26907349 207.63873291 C63.26935574 205.84461977 63.26919687 204.05050651 63.26863098 202.25639343 C63.2683445 197.39744862 63.27421709 192.53852858 63.28120494 187.67958951 C63.28746335 182.59736332 63.28804425 177.51513655 63.28923035 172.4329071 C63.29233633 162.81415804 63.30053984 153.19542036 63.31057984 143.57667631 C63.32176374 132.62388232 63.32725716 121.67108778 63.33227527 110.71828949 C63.34272306 88.19233398 63.36030831 65.66638858 63.38259888 43.14044189 C62.52482346 43.14710373 61.66704803 43.15376556 60.78327942 43.16062927 C52.70508091 43.22070551 44.62695727 43.2663985 36.54858685 43.29587841 C32.3952603 43.31154379 28.24211813 43.33279772 24.08889771 43.36676025 C20.08184303 43.39932299 16.07496584 43.41728834 12.06778908 43.42507362 C10.53793353 43.43062272 9.00808784 43.44145865 7.47830772 43.45763206 C5.33771033 43.47936605 3.19784915 43.48241062 1.05715942 43.48101807 C-0.16195633 43.4876799 -1.38107208 43.49434174 -2.63713074 43.50120544 C-5.61740112 43.14044189 -5.61740112 43.14044189 -7.47206116 41.80665588 C-10.96853589 36.72006562 -9.84154291 29.86890892 -9.8576355 23.94415283 C-9.86733576 21.78002405 -9.8983688 19.61684771 -9.92990112 17.45294189 C-9.9364324 16.07013501 -9.94168238 14.68732136 -9.94552612 13.30450439 C-9.95954468 11.42432617 -9.95954468 11.42432617 -9.97384644 9.50616455 C-9.59065374 5.88788065 -8.80047315 4.01776538 -6.61740112 1.14044189 C-4.20757598 -0.06447068 -2.69214857 0.00943939 0 0 Z " fill="#FEFEFE" transform="translate(295.6174011230469,418.85955810546875)"/>
</svg>
